<svg xmlns="http://www.w3.org/2000/svg" viewBox="0 0 40 40">
  <path fill="#000" d="
    M0 5l1-1h38l1 1v3l-.5 4v27.6h-4v-.5l-10-10h-12l-13-17l-.5-4z
  "/>
  <path fill="#222" d="
    M11 1.5h17l1-1h5.5l.5-.5h1l1 1v14l-1.5 1.5v15l1.5 1.5h1l1.25-1.25v4.25h-3.75v3.5h-31v-7h21.4v-16h-16v-14z
  "/>
  <path fill="#333" d="
    M3 0h2l.5.5h4l1 1h1v10.75l2 2h13.25l.25.25h7a2 2 0 0 0 2-2v-12.5h3a1 1 0 0 1 1 1v4a1.5 1.5 0 1 0 0 3v31a1 1 0 0 1-1 1h-4v-6a1 1 0 0 0-1-1h-28a1 1 0 0 0-1 1v6h-4a1 1 0 0 1-1-1v-31a1.5 1.5 0 1 0 0-3v-2
    m2 34h2v-1.5h-2
    m34 3.5h3v-6h-1v-.5h-1v.5h-1
    m-34-21a1 1 0 0 0 0-2 1 1 0 0 0 0 2
    m36 0a1 1 0 0 0 0-2 1 1 0 0 0 0 2
    m-18 5a5.5 5.5 0 1 0 0 11 5.5 5.5 0 1 0 0-11z
  "/>
  <path fill="#eee" d="
    M11 .5h18v12a2 2 0 0 1-2 2h-14a2 2 0 0 1-2-2
    m9 5a5 5 0 1 0 0 10 5 5 0 1 0 0-10
    m-6-3.5h5v-11h-2v-.5h-1v.5h-2
    m9-.5v.5h1v-.5
    m-4 19l1 1-1 1-1-1
    m3-1h2v1.5a2 2 0 0 1-2 2z
  "/>
</svg>